<svg
    width="16"
    height="16"
    viewBox="0 0 16 16"
    fill="currentColor"
    xmlns="http://www.w3.org/2000/svg"
>
    <path
        fill-rule="evenodd"
        clip-rule="evenodd"
        d="M8.85654 9.5954C8.02847 10.2618 6.97597 10.6607 5.83031 10.6607C3.1626 10.6607 1 8.49807 1 5.83034C1 3.16262 3.1626 1 5.83031 1C8.49801 1 10.6606 3.16262 10.6606 5.83034C10.6606 6.97596 10.2618 8.02842 9.59543 8.85648L15 14.2611L14.2611 15L8.85654 9.5954ZM9.58721 5.83034C9.58721 7.90524 7.90519 9.58728 5.83031 9.58728C3.75542 9.58728 2.0734 7.90524 2.0734 5.83034C2.0734 3.75545 3.75542 2.07341 5.83031 2.07341C7.90519 2.07341 9.58721 3.75545 9.58721 5.83034Z"
    />
</svg>
