<svg
    width="16"
    height="16"
    viewBox="0 0 16 16"
    fill="currentColor"
    xmlns="http://www.w3.org/2000/svg"
>
    <g clip-path="url(#clip0_856_11789)">
        <path
            fill-rule="evenodd"
            clip-rule="evenodd"
            d="M0 3H11V4H13.7676L16 7.34861V13H14C14 14.1046 13.1046 15 12 15C10.8954 15 10 14.1046 10 13H5C5 14.1046 4.10457 15 3 15C1.89543 15 1 14.1046 1 13H0V3ZM11 8V5H13.2324L15 7.65139V8L11 8ZM11 9V11.2676C11.2942 11.0974 11.6357 11 12 11C12.7403 11 13.3866 11.4022 13.7324 12H15V9L11 9ZM12 14C11.4477 14 11 13.5523 11 13C11 12.4477 11.4477 12 12 12C12.5523 12 13 12.4477 13 13C13 13.5523 12.5523 14 12 14ZM10 12H4.73244C4.38663 11.4022 3.74028 11 3 11C2.25972 11 1.61337 11.4022 1.26756 12H1V4H10V12ZM3 14C3.55228 14 4 13.5523 4 13C4 12.4477 3.55228 12 3 12C2.44772 12 2 12.4477 2 13C2 13.5523 2.44772 14 3 14Z"
        />
    </g>
    <defs>
        <clipPath id="clip0_856_11789">
            <rect width="16" height="16" fill="white" />
        </clipPath>
    </defs>
</svg>
