<svg
    width="20"
    height="20"
    viewBox="0 0 20 20"
    fill="currentColor"
    xmlns="http://www.w3.org/2000/svg"
>
    <path
        fill-rule="evenodd"
        clip-rule="evenodd"
        d="M0 4.5H14.5V5.5H17.2676L19.5 8.84861V16.5H17.5C17.5 17.6046 16.6046 18.5 15.5 18.5C14.3954 18.5 13.5 17.6046 13.5 16.5H5C5 17.6046 4.10457 18.5 3 18.5C1.89543 18.5 1 17.6046 1 16.5H0V4.5ZM14.5 11V6.5H16.7324L18.5 9.15139V11L14.5 11ZM14.5 12V14.7676C14.7942 14.5974 15.1357 14.5 15.5 14.5C16.2403 14.5 16.8866 14.9022 17.2324 15.5H18.5V12L14.5 12ZM15.5 17.5C14.9477 17.5 14.5 17.0523 14.5 16.5C14.5 15.9477 14.9477 15.5 15.5 15.5C16.0523 15.5 16.5 15.9477 16.5 16.5C16.5 17.0523 16.0523 17.5 15.5 17.5ZM13.5 15.5H4.73244C4.38663 14.9022 3.74028 14.5 3 14.5C2.25972 14.5 1.61337 14.9022 1.26756 15.5H1V5.5H13.5V15.5ZM3 17.5C3.55228 17.5 4 17.0523 4 16.5C4 15.9477 3.55228 15.5 3 15.5C2.44772 15.5 2 15.9477 2 16.5C2 17.0523 2.44772 17.5 3 17.5Z"
    />
</svg>
