<svg
    width="20"
    height="20"
    viewBox="0 0 20 20"
    fill="currentColor"
    xmlns="http://www.w3.org/2000/svg"
>
    <path
        fill-rule="evenodd"
        clip-rule="evenodd"
        d="M10.3211 10.7378C9.43799 11.523 8.2747 12 7 12C4.23858 12 2 9.76142 2 7C2 4.23858 4.23858 2 7 2C9.76142 2 12 4.23858 12 7C12 8.1257 11.628 9.1645 11.0002 10.0002L18 17.3L17.3 18.0001L10.3211 10.7378ZM11 7C11 9.20914 9.20914 11 7 11C4.79086 11 3 9.20914 3 7C3 4.79086 4.79086 3 7 3C9.20914 3 11 4.79086 11 7Z"
    />
</svg>
